<?xml version="1.0" encoding="UTF-8" standalone="no"?>
<svg
   xmlns:dc="http://purl.org/dc/elements/1.1/"
   xmlns:cc="http://creativecommons.org/ns#"
   xmlns:rdf="http://www.w3.org/1999/02/22-rdf-syntax-ns#"
   xmlns:svg="http://www.w3.org/2000/svg"
   xmlns="http://www.w3.org/2000/svg"
   xmlns:xlink="http://www.w3.org/1999/xlink"
   xmlns:sodipodi="http://sodipodi.sourceforge.net/DTD/sodipodi-0.dtd"
   xmlns:inkscape="http://www.inkscape.org/namespaces/inkscape"
   width="106.41pt"
   height="165.67pt"
   version="1.0"
   viewBox="0 0 64.901 85.58"
   id="svg302"
   sodipodi:docname="10_club.svg"
   inkscape:version="1.0.2 (e86c870879, 2021-01-15)">
  <sodipodi:namedview
     pagecolor="#ffffff"
     bordercolor="#666666"
     borderopacity="1"
     objecttolerance="10"
     gridtolerance="10"
     guidetolerance="10"
     inkscape:pageopacity="0"
     inkscape:pageshadow="2"
     inkscape:window-width="1680"
     inkscape:window-height="991"
     id="namedview304"
     showgrid="false"
     inkscape:zoom="3.7529426"
     inkscape:cx="70.940002"
     inkscape:cy="110.44667"
     inkscape:window-x="0"
     inkscape:window-y="0"
     inkscape:window-maximized="1"
     inkscape:current-layer="svg302" />
  <metadata
     id="metadata246">
    <rdf:RDF>
      <cc:Work
         rdf:about="">
        <dc:format>image/svg+xml</dc:format>
        <dc:type
           rdf:resource="http://purl.org/dc/dcmitype/StillImage" />
        <dc:title />
      </cc:Work>
    </rdf:RDF>
  </metadata>
  <defs
     id="defs251">
    <path
       id="cf"
       d="m78.25 117.25c0 2.762-2.238 5-5 5h-67.5c-2.761 0-5-2.238-5-5v-111.5c0-2.762 2.239-5 5-5h67.5c2.762 0 5 2.238 5 5z"
       fill="#fff"
       stroke="#000"
       stroke-width="1.5" />
    <path
       id="cl"
       d="m2.159-0.864s2.375-1.9 2.375-4.534c0-1.542-1.369-4.102-4.534-4.102s-4.534 2.561-4.534 4.102c0 2.634 2.375 4.534 2.375 4.534-2.638-2.055-7.341-0.652-7.341 3.455 0 2.056 1.68 4.318 4.318 4.318 3.165 0 4.534-3.455 4.534-3.455s0.402 3.938-1.943 6.046h5.182c-2.345-2.107-1.943-6.046-1.943-6.046s1.369 3.455 4.534 3.455c2.639 0 4.318-2.263 4.318-4.318 0-4.107-4.703-5.51-7.341-3.455z" />
    <path
       id="cs"
       d="m1.137-0.455s1.25-1 1.25-2.386c0-0.812-0.722-2.159-2.387-2.159-1.666 0-2.386 1.348-2.386 2.159 0 1.386 1.25 2.386 1.25 2.386-1.389-1.081-3.864-0.343-3.864 1.818 0 1.082 0.884 2.273 2.273 2.273 1.666 0 2.386-1.818 2.386-1.818s0.211 2.072-1.023 3.182h2.727c-1.234-1.109-1.022-3.182-1.022-3.182s0.721 1.818 2.387 1.818c1.389 0 2.272-1.191 2.272-2.273 0-2.161-2.476-2.899-3.863-1.818z" />
  </defs>
  <g
     id="10_club"
     transform="matrix(0.82153,0,0,0.82153,-587.39395,34.987297)">
    <use
       transform="translate(4,-52)"
       x="711"
       width="1027"
       height="615"
       xlink:href="#cf"
       id="use253"
       y="0" />
    <g
       fill="none"
       stroke="#000000"
       stroke-width="1.8259"
       id="g271">
      <path
         d="m 727.25,-36.9 c 0,1.19 -1.01,2.15 -2.25,2.15 -1.24,0 -2.25,-0.96 -2.25,-2.15 v -8.2 c 0,-1.19 1.01,-2.15 2.25,-2.15 1.24,0 2.25,0.96 2.25,2.15 z"
         id="path255" />
      <line
         x1="719.75"
         x2="719.75"
         y1="-47.75"
         y2="-34.25"
         id="line257" />
      <path
         d="m 789.25,-36.9 c 0,1.19 -1.01,2.15 -2.25,2.15 -1.24,0 -2.25,-0.96 -2.25,-2.15 v -8.2 c 0,-1.19 1.01,-2.15 2.25,-2.15 1.24,0 2.25,0.96 2.25,2.15 z"
         id="path259" />
      <line
         x1="781.75"
         x2="781.75"
         y1="-47.75"
         y2="-34.25"
         id="line261" />
      <line
         x1="789.25"
         x2="789.25"
         y1="66.75"
         y2="53.25"
         id="line263" />
      <path
         d="m 781.75,55.9 c 0,-1.19 1.01,-2.15 2.25,-2.15 1.24,0 2.25,0.96 2.25,2.15 v 8.2 c 0,1.19 -1.01,2.15 -2.25,2.15 -1.24,0 -2.25,-0.96 -2.25,-2.15 z"
         id="path265" />
      <line
         x1="727.25"
         x2="727.25"
         y1="66.75"
         y2="53.25"
         id="line267" />
      <path
         d="m 719.75,55.9 c 0,-1.19 1.01,-2.15 2.25,-2.15 1.24,0 2.25,0.96 2.25,2.15 v 8.2 c 0,1.19 -1.01,2.15 -2.25,2.15 -1.24,0 -2.25,-0.96 -2.25,-2.15 z"
         id="path269" />
    </g>
    <use
       transform="translate(723.5,-27.5)"
       width="1027"
       height="615"
       xlink:href="#cs"
       id="use273"
       x="0"
       y="0" />
    <use
       transform="rotate(180,361.75,23.25)"
       width="1027"
       height="615"
       xlink:href="#cs"
       id="use275"
       x="0"
       y="0" />
    <use
       transform="translate(785.5,-27.5)"
       width="1027"
       height="615"
       xlink:href="#cs"
       id="use277"
       x="0"
       y="0" />
    <use
       transform="rotate(180,392.75,23.25)"
       width="1027"
       height="615"
       xlink:href="#cs"
       id="use279"
       x="0"
       y="0" />
    <use
       transform="translate(738.5,-30.5)"
       width="1027"
       height="615"
       xlink:href="#cl"
       id="use281"
       x="0"
       y="0" />
    <use
       transform="translate(738.5,-3.75)"
       width="1027"
       height="615"
       xlink:href="#cl"
       id="use283"
       x="0"
       y="0" />
    <use
       transform="rotate(180,369.25,11.375)"
       width="1027"
       height="615"
       xlink:href="#cl"
       id="use285"
       x="0"
       y="0" />
    <use
       transform="rotate(180,369.25,24.75)"
       width="1027"
       height="615"
       xlink:href="#cl"
       id="use287"
       x="0"
       y="0" />
    <use
       transform="translate(754.5,-17.125)"
       width="1027"
       height="615"
       xlink:href="#cl"
       id="use289"
       x="0"
       y="0" />
    <use
       transform="rotate(180,377.25,18.062)"
       width="1027"
       height="615"
       xlink:href="#cl"
       id="use291"
       x="0"
       y="0" />
    <use
       transform="translate(770.5,-30.5)"
       width="1027"
       height="615"
       xlink:href="#cl"
       id="use293"
       x="0"
       y="0" />
    <use
       transform="translate(770.5,-3.75)"
       width="1027"
       height="615"
       xlink:href="#cl"
       id="use295"
       x="0"
       y="0" />
    <use
       transform="rotate(180,385.25,11.375)"
       width="1027"
       height="615"
       xlink:href="#cl"
       id="use297"
       x="0"
       y="0" />
    <use
       transform="rotate(180,385.25,24.75)"
       width="1027"
       height="615"
       xlink:href="#cl"
       id="use299"
       x="0"
       y="0" />
  </g>
</svg>
