<?xml version="1.0" encoding="UTF-8" standalone="no"?>
<svg
   xmlns:dc="http://purl.org/dc/elements/1.1/"
   xmlns:cc="http://creativecommons.org/ns#"
   xmlns:rdf="http://www.w3.org/1999/02/22-rdf-syntax-ns#"
   xmlns:svg="http://www.w3.org/2000/svg"
   xmlns="http://www.w3.org/2000/svg"
   xmlns:xlink="http://www.w3.org/1999/xlink"
   xmlns:sodipodi="http://sodipodi.sourceforge.net/DTD/sodipodi-0.dtd"
   xmlns:inkscape="http://www.inkscape.org/namespaces/inkscape"
   width="106.4058pt"
   height="165.66978pt"
   viewBox="0 0 64.90087 85.579622"
   version="1.0"
   id="svg2"
   sodipodi:version="0.32"
   inkscape:version="1.0.2 (e86c870879, 2021-01-15)"
   sodipodi:docname="3_diamond.svg">
  <metadata
     id="metadata1192">
    <rdf:RDF>
      <cc:Work
         rdf:about="">
        <dc:format>image/svg+xml</dc:format>
        <dc:type
           rdf:resource="http://purl.org/dc/dcmitype/StillImage" />
        <dc:title></dc:title>
      </cc:Work>
    </rdf:RDF>
  </metadata>
  <sodipodi:namedview
     inkscape:window-height="991"
     inkscape:window-width="1680"
     inkscape:pageshadow="2"
     inkscape:pageopacity="0.0"
     borderopacity="1.0"
     bordercolor="#666666"
     pagecolor="#ffffff"
     id="base"
     inkscape:zoom="1.2480129"
     inkscape:cx="339.73866"
     inkscape:cy="135.10991"
     inkscape:window-x="1680"
     inkscape:window-y="0"
     inkscape:current-layer="svg2"
     showgrid="false"
     inkscape:window-maximized="1"
     inkscape:document-rotation="0" />
  <defs
     id="defs4">
    <inkscape:perspective
       sodipodi:type="inkscape:persp3d"
       inkscape:vp_x="0 : 744.09448 : 1"
       inkscape:vp_y="0 : 1000 : 0"
       inkscape:vp_z="2104.7244 : 744.09448 : 1"
       inkscape:persp3d-origin="1052.3622 : 496.06299 : 1"
       id="perspective4464" />
    <path
       id="cf"
       d="m 78.25,117.25 c 0,2.762 -2.238,5 -5,5 H 5.75 c -2.761,0 -5,-2.238 -5,-5 V 5.75 c 0,-2.762 2.239,-5 5,-5 h 67.5 c 2.762,0 5,2.238 5,5 z"
       style="fill:#ffffff;stroke:#000000;stroke-width:1.5" />
    <path
       id="cl"
       d="m 2.159,-0.864 c 0,0 2.375,-1.9 2.375,-4.534 C 4.534,-6.94 3.165,-9.5 0,-9.5 c -3.165,0 -4.534,2.561 -4.534,4.102 0,2.634 2.375,4.534 2.375,4.534 -2.638,-2.055 -7.341,-0.652 -7.341,3.455 0,2.056 1.68,4.318 4.318,4.318 3.165,0 4.534,-3.455 4.534,-3.455 0,0 0.402,3.938 -1.943,6.046 H 2.591 C 0.246,7.393 0.648,3.454 0.648,3.454 c 0,0 1.369,3.455 4.534,3.455 2.639,0 4.318,-2.263 4.318,-4.318 0,-4.107 -4.703,-5.51 -7.341,-3.455 z"
       style="fill:#000000" />
    <path
       id="cs"
       d="m 1.137,-0.455 c 0,0 1.25,-1 1.25,-2.386 C 2.387,-3.653 1.665,-5 0,-5 c -1.666,0 -2.386,1.348 -2.386,2.159 0,1.386 1.25,2.386 1.25,2.386 C -2.525,-1.536 -5,-0.798 -5,1.363 c 0,1.082 0.884,2.273 2.273,2.273 1.666,0 2.386,-1.818 2.386,-1.818 0,0 0.211,2.072 -1.023,3.182 H 1.363 C 0.129,3.891 0.341,1.818 0.341,1.818 c 0,0 0.721,1.818 2.387,1.818 C 4.117,3.636 5,2.445 5,1.363 5,-0.798 2.524,-1.536 1.137,-0.455 Z"
       style="fill:#000000" />
    <path
       id="dl"
       d="M 3.529,-5.011 C 1.412,-7.875 0,-10.5 0,-10.5 c 0,0 -1.412,2.625 -3.529,5.489 C -5.647,-2.148 -8,0 -8,0 -8,0 -5.647,2.147 -3.529,5.012 -1.412,7.875 0,10.5 0,10.5 0,10.5 1.412,7.875 3.529,5.012 5.647,2.147 8,0 8,0 8,0 5.647,-2.148 3.529,-5.011 Z"
       style="fill:#df0000" />
    <path
       id="ds"
       d="M 1.985,-2.625 C 0.794,-4.125 0,-5.5 0,-5.5 c 0,0 -0.794,1.375 -1.985,2.875 C -3.176,-1.125 -4.5,0 -4.5,0 c 0,0 1.324,1.125 2.515,2.625 C -0.794,4.125 0,5.5 0,5.5 0,5.5 0.794,4.125 1.985,2.625 3.176,1.125 4.5,0 4.5,0 4.5,0 3.177,-1.125 1.985,-2.625 Z"
       style="fill:#df0000" />
    <path
       id="hl"
       d="M 3.676,-9 C 0.433,-9 0,-5.523 0,-5.523 0,-5.523 -0.433,-9 -3.676,-9 -5.946,-9 -8,-7.441 -8,-4.5 -8,-0.614 -0.809,6.189 0,9 0.813,6.186 8,-0.614 8,-4.5 8,-7.441 5.946,-9 3.676,-9 Z"
       style="fill:#df0000" />
    <path
       id="hs"
       d="M 2.067,-5 C 0.243,-5 0,-3.068 0,-3.068 0,-3.068 -0.243,-5 -2.067,-5 -3.344,-5 -4.5,-4.134 -4.5,-2.5 -4.5,-0.341 -0.455,3.438 0,5 0.458,3.437 4.5,-0.341 4.5,-2.5 4.5,-4.134 3.345,-5 2.067,-5 Z"
       style="fill:#df0000" />
    <path
       id="sl"
       d="M 7.989,3.103 C 7.747,-0.954 0.242,-8.59 0,-10.5 c -0.242,1.909 -7.747,9.545 -7.989,13.603 -0.169,2.868 1.695,4.057 3.39,4.057 2.421,0 3.147,-2.625 3.389,-3.341 0,-0.239 0.484,-0.239 0.484,0 0.242,0.716 -1.603,6.682 -2.179,6.682 h 5.811 c -0.576,0 -2.421,-5.966 -2.179,-6.682 0,-0.239 0.485,-0.239 0.485,0 C 1.454,4.535 2.18,7.16 4.601,7.16 6.295,7.159 8.158,5.971 7.989,3.103 Z"
       style="fill:#000000" />
    <path
       id="ss"
       d="M 4.494,1.625 C 4.357,-0.5 0.136,-4.5 0,-5.5 c -0.136,1 -4.358,5 -4.494,7.125 -0.095,1.503 0.954,2.125 1.907,2.125 1.362,0 1.771,-1.375 1.907,-1.75 0,-0.125 0.272,-0.125 0.272,0 0.136,0.375 -0.902,3.5 -1.226,3.5 H 1.634 C 1.311,5.5 0.273,2.375 0.408,2 c 0,-0.125 0.273,-0.125 0.273,0 0.136,0.375 0.544,1.75 1.906,1.75 0.954,0 2.002,-0.622 1.907,-2.125 z"
       style="fill:#000000" />
    <g
       id="it"
       style="fill:none;stroke-width:1.5">
      <line
         x1="951"
         y1="5.25"
         x2="955"
         y2="5.25"
         id="line16" />
      <line
         x1="956"
         y1="5.25"
         x2="960"
         y2="5.25"
         id="line18" />
      <line
         x1="951"
         y1="17.75"
         x2="955"
         y2="17.75"
         id="line20" />
      <line
         x1="956"
         y1="17.75"
         x2="960"
         y2="17.75"
         id="line22" />
      <line
         x1="958.75"
         y1="5"
         x2="952.75"
         y2="13.25"
         id="line24" />
      <line
         x1="958.75"
         y1="18"
         x2="955"
         y2="10.25"
         id="line26" />
      <line
         x1="952.75"
         y1="4.5"
         x2="952.75"
         y2="18.5"
         id="line28" />
      <path
         d="m 872,12.5 c 6,0 5,5 9,5"
         id="path30" />
      <path
         d="m 879.25,11.5 c 0,-3.45 0,-6.25 -2.75,-6.25 -2.75,0 -2.75,2.8 -2.75,6.25 0,3.45 0,6.25 2.75,6.25 2.75,0 2.75,-2.8 2.75,-6.25 z"
         id="path32" />
      <path
         d="M 793.75,14.75 V 15 c 0,0 -0.25,2.75 3,2.75 3.25,0 3,-2.75 3,-2.75 V 6"
         id="path34" />
      <line
         x1="802"
         y1="5.25"
         x2="797.5"
         y2="5.25"
         id="line36" />
      <path
         d="m 722.25,15.6 c 0,1.19 -1.01,2.15 -2.25,2.15 v 0 c -1.24,0 -2.25,-0.96 -2.25,-2.15 V 7.4 c 0,-1.19 1.01,-2.15 2.25,-2.15 v 0 c 1.24,0 2.25,0.96 2.25,2.15 z"
         id="path38" />
      <line
         x1="714.75"
         y1="4.75"
         x2="714.75"
         y2="18.25"
         id="line40" />
      <path
         d="m 642.75,9 v 5.5 c 0,0 0.25,3.25 -3.23,3.25 -1.08,0 -2.8,-0.5 -3.02,-2.25"
         id="path42" />
      <circle
         cx="639.5"
         cy="9"
         r="3.25"
         id="circle44" />
      <circle
         cx="560.5"
         cy="14.25"
         r="3.5"
         id="circle46" />
      <circle
         cx="560.5"
         cy="7.75"
         r="3"
         id="circle48" />
      <path
         d="M 477.75,7.5 V 5.25 h 6.5 L 485,6 c -2.25,2.75 -4.25,7.75 -4.25,12.5"
         id="path50" />
      <circle
         cx="402.5"
         cy="14"
         r="3.25"
         id="circle52" />
      <path
         d="M 399.25,14 V 8.5 c 0,0 -0.25,-3.25 3.23,-3.25 1.08,0 2.8,0.5 3.02,2.25"
         id="path54" />
      <path
         d="m 327.25,5.25 h -7 v 5.25 l 0.7,0.25 c 0,0 0.47,-1.5 2.8,-1.5 2.33,0 3.27,2.25 3.27,4.5 0,2.25 -1.4,4 -3.5,4 -2.1,0 -3.03,-1.5 -3.27,-2.25"
         id="path56" />
      <line
         x1="245"
         y1="17.75"
         x2="249"
         y2="17.75"
         id="line58" />
      <polyline
         points="247,17.75 247,5.25 246.25,5.25 240.75,14.25 240.75,14.75 249,14.75 "
         id="polyline60" />
      <path
         d="M 161.75,7.5 V 5.25 h 6.75 V 6 l -5,5.25 c 0,0 1,-0.5 2.5,-0.5 1.5,0 3.25,1.25 3.25,3.25 0,2 -1.5,3.75 -3.75,3.75 -1.75,0 -3.25,-1 -3.75,-2.5"
         id="path62" />
      <path
         d="m 90.25,15.5 v 2.25 h -7.5 V 16.5 c 0,-3.25 7.5,-3.75 7.5,-7.75 0,-2.75 -1.25,-3.5 -3.75,-3.5 -2.5,0 -3.75,1.5 -3.75,3"
         id="path64" />
      <line
         x1="3"
         y1="17.75"
         x2="6.5"
         y2="17.75"
         id="line66" />
      <line
         x1="12"
         y1="17.75"
         x2="8.5"
         y2="17.75"
         id="line68" />
      <polyline
         points="4.5,17.75 7.5,4.5 10.5,17.75 "
         id="polyline70" />
      <line
         x1="5.25"
         y1="14.5"
         x2="9.75"
         y2="14.5"
         id="line72" />
    </g>
    <g
       id="ib"
       style="fill:none;stroke-width:1.5">
      <line
         x1="1024"
         y1="117.75"
         x2="1020"
         y2="117.75"
         id="line75" />
      <line
         x1="1019"
         y1="117.75"
         x2="1015"
         y2="117.75"
         id="line77" />
      <line
         x1="1024"
         y1="105.25"
         x2="1020"
         y2="105.25"
         id="line79" />
      <line
         x1="1022.25"
         y1="118.5"
         x2="1022.25"
         y2="104.5"
         id="line81" />
      <line
         x1="1016.25"
         y1="118"
         x2="1022.25"
         y2="109.75"
         id="line83" />
      <line
         x1="1016.25"
         y1="105"
         x2="1020"
         y2="112.75"
         id="line85" />
      <path
         d="m 937.75,111.5 c 0,3.45 0,6.25 2.75,6.25 2.75,0 2.75,-2.8 2.75,-6.25 0,-3.45 0,-6.25 -2.75,-6.25 -2.75,0 -2.75,2.8 -2.75,6.25 z"
         id="path87" />
      <path
         d="m 945,110.5 c -6,0 -5,-5 -9,-5"
         id="path89" />
      <path
         d="M 865.25,108.25 V 108 c 0,0 0.25,-2.75 -3,-2.75 -3.25,0 -3,2.75 -3,2.75 v 9"
         id="path91" />
      <line
         x1="857"
         y1="117.75"
         x2="861.5"
         y2="117.75"
         id="line93" />
      <line
         x1="786.25"
         y1="118.25"
         x2="786.25"
         y2="104.75"
         id="line95" />
      <path
         d="m 778.75,107.4 c 0,-1.19 1.01,-2.15 2.25,-2.15 v 0 c 1.24,0 2.25,0.96 2.25,2.15 v 8.2 c 0,1.19 -1.01,2.15 -2.25,2.15 v 0 c -1.24,0 -2.25,-0.96 -2.25,-2.15 z"
         id="path97" />
      <circle
         cx="703.5"
         cy="114"
         r="3.25"
         id="circle99" />
      <path
         d="m 700.25,114 v -5.5 c 0,0 -0.25,-3.25 3.23,-3.25 1.08,0 2.8,0.5 3.02,2.25"
         id="path101" />
      <circle
         cx="624.5"
         cy="115.25"
         r="3"
         id="circle103" />
      <circle
         cx="624.5"
         cy="108.75"
         r="3.5"
         id="circle105" />
      <path
         d="m 549.25,115.5 v 2.25 h -6.5 L 542,117 c 2.25,-2.75 4.25,-7.75 4.25,-12.5"
         id="path107" />
      <path
         d="m 469.75,109 v 5.5 c 0,0 0.25,3.25 -3.23,3.25 -1.08,0 -2.8,-0.5 -3.02,-2.25"
         id="path109" />
      <circle
         cx="466.5"
         cy="109"
         r="3.25"
         id="circle111" />
      <path
         d="m 383.75,117.75 h 7 v -5.25 l -0.7,-0.25 c 0,0 -0.47,1.5 -2.8,1.5 -2.33,0 -3.27,-2.25 -3.27,-4.5 0,-2.25 1.4,-4 3.5,-4 2.1,0 3.03,1.5 3.27,2.25"
         id="path113" />
      <polyline
         points="306,105.25 306,117.75 306.75,117.75 312.25,108.75 312.25,108.25 304,108.25 "
         id="polyline115" />
      <line
         x1="308"
         y1="105.25"
         x2="304"
         y2="105.25"
         id="line117" />
      <path
         d="m 233.25,115.5 v 2.25 H 226.5 V 117 l 5,-5.25 c 0,0 -1,0.5 -2.5,0.5 -1.5,0 -3.25,-1.25 -3.25,-3.25 0,-2 1.5,-3.75 3.75,-3.75 1.75,0 3.25,1 3.75,2.5"
         id="path119" />
      <path
         d="m 146.75,107.5 v -2.25 h 7.5 v 1.25 c 0,3.25 -7.5,3.75 -7.5,7.75 0,2.75 1.25,3.5 3.75,3.5 2.5,0 3.75,-1.5 3.75,-3"
         id="path121" />
      <line
         x1="73.75"
         y1="108.5"
         x2="69.25"
         y2="108.5"
         id="line123" />
      <line
         x1="76"
         y1="105.25"
         x2="72.5"
         y2="105.25"
         id="line125" />
      <line
         x1="67"
         y1="105.25"
         x2="70.5"
         y2="105.25"
         id="line127" />
      <polyline
         points="74.5,105.25 71.5,118.5 68.5,105.25 "
         id="polyline129" />
      <line
         x1="1019"
         y1="105.25"
         x2="1015"
         y2="105.25"
         id="line131" />
    </g>
  </defs>
  <g
     id="3_diamond"
     transform="matrix(0.82153,0,0,0.82153,-136.37398,-84.136572)"
     inkscape:label="#g4498">
    <use
       transform="translate(8,-30)"
       x="158"
       y="123"
       xlink:href="#cf"
       id="use156"
       width="1027"
       height="615" />
    <path
       id="path3243"
       d="m 170.75,100 v -2.25 h 6.75 v 0.75 l -5,5.25 c 0,0 1,-0.5 2.5,-0.5 1.5,0 3.25,1.25 3.25,3.25 0,2 -1.5,3.75 -3.75,3.75 -1.75,0 -3.25,-1 -3.75,-2.5"
       style="fill:none;stroke:#df0000;stroke-width:1.82586" />
    <path
       id="path3959"
       d="m 232.75,100 v -2.25 h 6.75 v 0.75 l -5,5.25 c 0,0 1,-0.5 2.5,-0.5 1.5,0 3.25,1.25 3.25,3.25 0,2 -1.5,3.75 -3.75,3.75 -1.75,0 -3.25,-1 -3.75,-2.5"
       style="fill:none;stroke:#df0000;stroke-width:1.82586" />
    <path
       id="path4390"
       d="m 240.25,209 v 2.25 h -6.75 v -0.75 l 5,-5.25 c 0,0 -1,0.5 -2.5,0.5 -1.5,0 -3.25,-1.25 -3.25,-3.25 0,-2 1.5,-3.75 3.75,-3.75 1.75,0 3.25,1 3.75,2.5"
       style="fill:none;stroke:#df0000;stroke-width:1.82586" />
    <path
       id="path3330"
       d="m 178.25,209 v 2.25 h -6.75 v -0.75 l 5,-5.25 c 0,0 -1,0.5 -2.5,0.5 -1.5,0 -3.25,-1.25 -3.25,-3.25 0,-2 1.5,-3.75 3.75,-3.75 1.75,0 3.25,1 3.75,2.5"
       style="fill:none;stroke:#df0000;stroke-width:1.82586" />
    <use
       transform="translate(174.5,117.5)"
       xlink:href="#ds"
       id="use344"
       x="0"
       y="0"
       width="1027"
       height="615" />
    <use
       transform="translate(174.5,191.5)"
       xlink:href="#ds"
       id="use352"
       x="0"
       y="0"
       width="1027"
       height="615" />
    <use
       transform="translate(236.5,117.5)"
       xlink:href="#ds"
       id="use360"
       x="0"
       y="0"
       width="1027"
       height="615" />
    <use
       transform="translate(236.5,191.5)"
       xlink:href="#ds"
       id="use368"
       x="0"
       y="0"
       width="1027"
       height="615" />
    <use
       transform="translate(205.5,114.5)"
       xlink:href="#dl"
       id="use725"
       x="0"
       y="0"
       width="1027"
       height="615" />
    <use
       transform="translate(205.5,154.5)"
       xlink:href="#dl"
       id="use727"
       x="0"
       y="0"
       width="1027"
       height="615" />
    <use
       transform="translate(205.5,194.5)"
       xlink:href="#dl"
       id="use729"
       x="0"
       y="0"
       width="1027"
       height="615" />
  </g>
</svg>
