<?xml version="1.0" encoding="UTF-8" standalone="no"?>
<svg
   xmlns:dc="http://purl.org/dc/elements/1.1/"
   xmlns:cc="http://creativecommons.org/ns#"
   xmlns:rdf="http://www.w3.org/1999/02/22-rdf-syntax-ns#"
   xmlns:svg="http://www.w3.org/2000/svg"
   xmlns="http://www.w3.org/2000/svg"
   xmlns:xlink="http://www.w3.org/1999/xlink"
   xmlns:sodipodi="http://sodipodi.sourceforge.net/DTD/sodipodi-0.dtd"
   xmlns:inkscape="http://www.inkscape.org/namespaces/inkscape"
   width="106.41pt"
   height="165.67pt"
   version="1.0"
   viewBox="0 0 64.901 85.58"
   id="svg514"
   sodipodi:docname="6_club.svg"
   inkscape:version="1.0.2 (e86c870879, 2021-01-15)">
  <sodipodi:namedview
     pagecolor="#ffffff"
     bordercolor="#666666"
     borderopacity="1"
     objecttolerance="10"
     gridtolerance="10"
     guidetolerance="10"
     inkscape:pageopacity="0"
     inkscape:pageshadow="2"
     inkscape:window-width="1680"
     inkscape:window-height="991"
     id="namedview516"
     showgrid="false"
     inkscape:zoom="3.7529426"
     inkscape:cx="70.940002"
     inkscape:cy="110.44667"
     inkscape:window-x="0"
     inkscape:window-y="0"
     inkscape:window-maximized="1"
     inkscape:current-layer="svg514" />
  <metadata
     id="metadata466">
    <rdf:RDF>
      <cc:Work
         rdf:about="">
        <dc:format>image/svg+xml</dc:format>
        <dc:type
           rdf:resource="http://purl.org/dc/dcmitype/StillImage" />
        <dc:title />
      </cc:Work>
    </rdf:RDF>
  </metadata>
  <defs
     id="defs471">
    <path
       id="cf"
       d="m78.25 117.25c0 2.762-2.238 5-5 5h-67.5c-2.761 0-5-2.238-5-5v-111.5c0-2.762 2.239-5 5-5h67.5c2.762 0 5 2.238 5 5z"
       fill="#fff"
       stroke="#000"
       stroke-width="1.5" />
    <path
       id="cl"
       d="m2.159-0.864s2.375-1.9 2.375-4.534c0-1.542-1.369-4.102-4.534-4.102s-4.534 2.561-4.534 4.102c0 2.634 2.375 4.534 2.375 4.534-2.638-2.055-7.341-0.652-7.341 3.455 0 2.056 1.68 4.318 4.318 4.318 3.165 0 4.534-3.455 4.534-3.455s0.402 3.938-1.943 6.046h5.182c-2.345-2.107-1.943-6.046-1.943-6.046s1.369 3.455 4.534 3.455c2.639 0 4.318-2.263 4.318-4.318 0-4.107-4.703-5.51-7.341-3.455z" />
    <path
       id="cs"
       d="m1.137-0.455s1.25-1 1.25-2.386c0-0.812-0.722-2.159-2.387-2.159-1.666 0-2.386 1.348-2.386 2.159 0 1.386 1.25 2.386 1.25 2.386-1.389-1.081-3.864-0.343-3.864 1.818 0 1.082 0.884 2.273 2.273 2.273 1.666 0 2.386-1.818 2.386-1.818s0.211 2.072-1.023 3.182h2.727c-1.234-1.109-1.022-3.182-1.022-3.182s0.721 1.818 2.387 1.818c1.389 0 2.272-1.191 2.272-2.273 0-2.161-2.476-2.899-3.863-1.818z" />
  </defs>
  <g
     id="6_club"
     transform="matrix(0.82153,0,0,0.82153,-327.79047,34.987297)">
    <use
       transform="translate(4,-52)"
       x="395"
       width="1027"
       height="615"
       xlink:href="#cf"
       id="use473"
       y="0" />
    <g
       fill="none"
       stroke="#000000"
       stroke-width="1.8259"
       id="g491">
      <circle
         transform="translate(5,-52.5)"
         cx="402.5"
         cy="14"
         r="3.25"
         id="circle475" />
      <path
         d="M 404.25,-38.5 V -44 c 0,0 -0.25,-3.25 3.23,-3.25 1.08,0 2.8,0.5 3.02,2.25"
         id="path477" />
      <circle
         transform="translate(67,-52.5)"
         cx="402.5"
         cy="14"
         r="3.25"
         id="circle479" />
      <path
         d="M 466.25,-38.5 V -44 c 0,0 -0.25,-3.25 3.23,-3.25 1.08,0 2.8,0.5 3.02,2.25"
         id="path481" />
      <path
         d="M 472.75,57.5 V 63 c 0,0 0.25,3.25 -3.23,3.25 -1.08,0 -2.8,-0.5 -3.02,-2.25"
         id="path483" />
      <circle
         transform="translate(3,-51.5)"
         cx="466.5"
         cy="109"
         r="3.25"
         id="circle485" />
      <path
         d="M 410.75,57.5 V 63 c 0,0 0.25,3.25 -3.23,3.25 -1.08,0 -2.8,-0.5 -3.02,-2.25"
         id="path487" />
      <circle
         transform="translate(-59,-51.5)"
         cx="466.5"
         cy="109"
         r="3.25"
         id="circle489" />
    </g>
    <use
       transform="translate(407.5,-27.5)"
       width="1027"
       height="615"
       xlink:href="#cs"
       id="use493"
       x="0"
       y="0" />
    <use
       transform="rotate(180,203.75,23.25)"
       width="1027"
       height="615"
       xlink:href="#cs"
       id="use495"
       x="0"
       y="0" />
    <use
       transform="translate(469.5,-27.5)"
       width="1027"
       height="615"
       xlink:href="#cs"
       id="use497"
       x="0"
       y="0" />
    <use
       transform="rotate(180,234.75,23.25)"
       width="1027"
       height="615"
       xlink:href="#cs"
       id="use499"
       x="0"
       y="0" />
    <use
       transform="translate(422.5,-30.5)"
       width="1027"
       height="615"
       xlink:href="#cl"
       id="use501"
       x="0"
       y="0" />
    <use
       transform="translate(422.5,9.5)"
       width="1027"
       height="615"
       xlink:href="#cl"
       id="use503"
       x="0"
       y="0" />
    <use
       transform="rotate(180,211.25,24.75)"
       width="1027"
       height="615"
       xlink:href="#cl"
       id="use505"
       x="0"
       y="0" />
    <use
       transform="translate(454.5,-30.5)"
       width="1027"
       height="615"
       xlink:href="#cl"
       id="use507"
       x="0"
       y="0" />
    <use
       transform="translate(454.5,9.5)"
       width="1027"
       height="615"
       xlink:href="#cl"
       id="use509"
       x="0"
       y="0" />
    <use
       transform="rotate(180,227.25,24.75)"
       width="1027"
       height="615"
       xlink:href="#cl"
       id="use511"
       x="0"
       y="0" />
  </g>
</svg>
