<?xml version="1.0" encoding="UTF-8" standalone="no"?>
<svg
   xmlns:dc="http://purl.org/dc/elements/1.1/"
   xmlns:cc="http://creativecommons.org/ns#"
   xmlns:rdf="http://www.w3.org/1999/02/22-rdf-syntax-ns#"
   xmlns:svg="http://www.w3.org/2000/svg"
   xmlns="http://www.w3.org/2000/svg"
   xmlns:xlink="http://www.w3.org/1999/xlink"
   xmlns:sodipodi="http://sodipodi.sourceforge.net/DTD/sodipodi-0.dtd"
   xmlns:inkscape="http://www.inkscape.org/namespaces/inkscape"
   width="106.41pt"
   height="165.67pt"
   version="1.0"
   viewBox="0 0 64.901 85.58"
   id="svg360"
   sodipodi:docname="9_club.svg"
   inkscape:version="1.0.2 (e86c870879, 2021-01-15)">
  <sodipodi:namedview
     pagecolor="#ffffff"
     bordercolor="#666666"
     borderopacity="1"
     objecttolerance="10"
     gridtolerance="10"
     guidetolerance="10"
     inkscape:pageopacity="0"
     inkscape:pageshadow="2"
     inkscape:window-width="1680"
     inkscape:window-height="991"
     id="namedview362"
     showgrid="false"
     inkscape:zoom="3.7529426"
     inkscape:cx="70.940002"
     inkscape:cy="110.44667"
     inkscape:window-x="0"
     inkscape:window-y="0"
     inkscape:window-maximized="1"
     inkscape:current-layer="svg360" />
  <metadata
     id="metadata306">
    <rdf:RDF>
      <cc:Work
         rdf:about="">
        <dc:format>image/svg+xml</dc:format>
        <dc:type
           rdf:resource="http://purl.org/dc/dcmitype/StillImage" />
        <dc:title />
      </cc:Work>
    </rdf:RDF>
  </metadata>
  <defs
     id="defs311">
    <path
       id="cf"
       d="m78.25 117.25c0 2.762-2.238 5-5 5h-67.5c-2.761 0-5-2.238-5-5v-111.5c0-2.762 2.239-5 5-5h67.5c2.762 0 5 2.238 5 5z"
       fill="#fff"
       stroke="#000"
       stroke-width="1.5" />
    <path
       id="cl"
       d="m2.159-0.864s2.375-1.9 2.375-4.534c0-1.542-1.369-4.102-4.534-4.102s-4.534 2.561-4.534 4.102c0 2.634 2.375 4.534 2.375 4.534-2.638-2.055-7.341-0.652-7.341 3.455 0 2.056 1.68 4.318 4.318 4.318 3.165 0 4.534-3.455 4.534-3.455s0.402 3.938-1.943 6.046h5.182c-2.345-2.107-1.943-6.046-1.943-6.046s1.369 3.455 4.534 3.455c2.639 0 4.318-2.263 4.318-4.318 0-4.107-4.703-5.51-7.341-3.455z" />
    <path
       id="cs"
       d="m1.137-0.455s1.25-1 1.25-2.386c0-0.812-0.722-2.159-2.387-2.159-1.666 0-2.386 1.348-2.386 2.159 0 1.386 1.25 2.386 1.25 2.386-1.389-1.081-3.864-0.343-3.864 1.818 0 1.082 0.884 2.273 2.273 2.273 1.666 0 2.386-1.818 2.386-1.818s0.211 2.072-1.023 3.182h2.727c-1.234-1.109-1.022-3.182-1.022-3.182s0.721 1.818 2.387 1.818c1.389 0 2.272-1.191 2.272-2.273 0-2.161-2.476-2.899-3.863-1.818z" />
  </defs>
  <g
     id="9_club"
     transform="matrix(0.82153,0,0,0.82153,-522.49308,34.987297)">
    <use
       transform="translate(4,-52)"
       x="632"
       width="1027"
       height="615"
       xlink:href="#cf"
       id="use313"
       y="0" />
    <g
       fill="none"
       stroke="#000000"
       stroke-width="1.8259"
       id="g331">
      <path
         d="m 647.75,-43.5 v 5.5 c 0,0 0.25,3.25 -3.23,3.25 -1.08,0 -2.8,-0.5 -3.02,-2.25"
         id="path315" />
      <circle
         transform="translate(5,-52.5)"
         cx="639.5"
         cy="9"
         r="3.25"
         id="circle317" />
      <path
         d="m 709.75,-43.5 v 5.5 c 0,0 0.25,3.25 -3.23,3.25 -1.08,0 -2.8,-0.5 -3.02,-2.25"
         id="path319" />
      <circle
         transform="translate(67,-52.5)"
         cx="639.5"
         cy="9"
         r="3.25"
         id="circle321" />
      <circle
         transform="translate(3,-51.5)"
         cx="703.5"
         cy="114"
         r="3.25"
         id="circle323" />
      <path
         d="M 703.25,62.5 V 57 c 0,0 -0.25,-3.25 3.23,-3.25 1.08,0 2.8,0.5 3.02,2.25"
         id="path325" />
      <circle
         transform="translate(-59,-51.5)"
         cx="703.5"
         cy="114"
         r="3.25"
         id="circle327" />
      <path
         d="M 641.25,62.5 V 57 c 0,0 -0.25,-3.25 3.23,-3.25 1.08,0 2.8,0.5 3.02,2.25"
         id="path329" />
    </g>
    <use
       transform="translate(644.5,-27.5)"
       width="1027"
       height="615"
       xlink:href="#cs"
       id="use333"
       x="0"
       y="0" />
    <use
       transform="rotate(180,322.25,23.25)"
       width="1027"
       height="615"
       xlink:href="#cs"
       id="use335"
       x="0"
       y="0" />
    <use
       transform="translate(706.5,-27.5)"
       width="1027"
       height="615"
       xlink:href="#cs"
       id="use337"
       x="0"
       y="0" />
    <use
       transform="rotate(180,353.25,23.25)"
       width="1027"
       height="615"
       xlink:href="#cs"
       id="use339"
       x="0"
       y="0" />
    <use
       transform="translate(659.5,-30.5)"
       width="1027"
       height="615"
       xlink:href="#cl"
       id="use341"
       x="0"
       y="0" />
    <use
       transform="translate(659.5,-3.75)"
       width="1027"
       height="615"
       xlink:href="#cl"
       id="use343"
       x="0"
       y="0" />
    <use
       transform="rotate(180,329.75,11.375)"
       width="1027"
       height="615"
       xlink:href="#cl"
       id="use345"
       x="0"
       y="0" />
    <use
       transform="rotate(180,329.75,24.75)"
       width="1027"
       height="615"
       xlink:href="#cl"
       id="use347"
       x="0"
       y="0" />
    <use
       transform="translate(675.5,8.5)"
       width="1027"
       height="615"
       xlink:href="#cl"
       id="use349"
       x="0"
       y="0" />
    <use
       transform="translate(691.5,-30.5)"
       width="1027"
       height="615"
       xlink:href="#cl"
       id="use351"
       x="0"
       y="0" />
    <use
       transform="translate(691.5,-3.75)"
       width="1027"
       height="615"
       xlink:href="#cl"
       id="use353"
       x="0"
       y="0" />
    <use
       transform="rotate(180,345.75,11.375)"
       width="1027"
       height="615"
       xlink:href="#cl"
       id="use355"
       x="0"
       y="0" />
    <use
       transform="rotate(180,345.75,24.75)"
       width="1027"
       height="615"
       xlink:href="#cl"
       id="use357"
       x="0"
       y="0" />
  </g>
</svg>
